# xmcd
#
# Track frame offsets:
#	150
#	20587
#	40825
#	61800
#	80862
#	102712
#	119787
#	140887
#	158587
#	180750
#	201362
#	220262
#	239925
#
# Disc length: 3438 seconds
#
# Revision: 1
# Processed by: cddbd v1.5.2PL0 Copyright (c) Steve Scherf et al.
# Submitted via: EasyCDDAExtractor 10.0.2.1
#
DISCID=c80d6c0d
DTITLE=名曲精选集 - 瘐澄庆
DYEAR=1995
DGENRE=Pop
TTITLE0=想念你
TTITLE1=错过的爱
TTITLE2=别再跟着我
TTITLE3=整晚的音乐
TTITLE4=让我一次爱个够
TTITLE5=想哭就到我怀里哭
TTITLE6=改变所有的错
TTITLE7=一个心跳的距离
TTITLE8=管不住自己
TTITLE9=爱你的记忆
TTITLE10=老实情歌
TTITLE11=快乐颂
TTITLE12=等待明天
EXTD=
EXTT0=
EXTT1=
EXTT2=
EXTT3=
EXTT4=
EXTT5=
EXTT6=
EXTT7=
EXTT8=
EXTT9=
EXTT10=
EXTT11=
EXTT12=
PLAYORDER=
